<svg width="451" height="40" viewBox="0 0 451 40" fill="none" xmlns="http://www.w3.org/2000/svg">
<g filter="url(#filter0_d)">
<path d="M437.751 30.458H441.501C441.637 30.458 441.751 30.343 441.751 30.208V20.458C441.751 19.906 442.2 19.458 442.751 19.458H444.581L434.268 10.525L423.923 19.458H425.751C426.303 19.458 426.751 19.906 426.751 20.458V30.208C426.751 30.343 426.866 30.458 427.001 30.458H430.751V24.208C430.751 23.519 431.312 22.958 432.001 22.958H436.501C437.19 22.958 437.751 23.519 437.751 24.208V30.458ZM441.501 31.958H437.251C436.699 31.958 436.251 31.51 436.251 30.958V24.806C436.251 24.614 436.095 24.458 435.903 24.458H432.599C432.407 24.458 432.251 24.614 432.251 24.806V30.958C432.251 31.51 431.803 31.958 431.251 31.958H427.001C426.035 31.958 425.251 31.174 425.251 30.208V20.958H423.32C422.818 20.958 422.33 20.694 422.119 20.238C421.881 19.724 422.008 19.137 422.426 18.769L433.252 9.391C433.499 9.154 433.859 9.006 434.24 9C434.643 9.006 435.004 9.154 435.278 9.416L446.072 18.765C446.074 18.767 446.075 18.768 446.076 18.769C446.495 19.137 446.622 19.724 446.384 20.238C446.172 20.694 445.685 20.958 445.182 20.958H443.251V30.208C443.251 31.174 442.468 31.958 441.501 31.958Z" fill="#66676B"/>
</g>
<path d="M16.6667 39.7778C7.22222 38.1111 0 29.8889 0 20C0 9 9 0 20 0C31 0 40 9 40 20C40 29.8889 32.7778 38.1111 23.3333 39.7778L22.2222 38.8889H17.7778L16.6667 39.7778Z" fill="url(#paint0_linear)"/>
<path d="M27.7778 25.5555L28.6667 20H23.3334V16.1111C23.3334 14.5555 23.8889 13.3333 26.3334 13.3333H28.8889V8.22222C27.4445 7.99999 25.8889 7.77777 24.4445 7.77777C19.8889 7.77777 16.6667 10.5555 16.6667 15.5555V20H11.6667V25.5555H16.6667V39.6667C17.7778 39.8889 18.8889 40 20 40C21.1111 40 22.2222 39.8889 23.3334 39.6667V25.5555H27.7778Z" fill="white"/>
<defs>
<filter id="filter0_d" x="418" y="9" width="32.5031" height="30.958" filterUnits="userSpaceOnUse" color-interpolation-filters="sRGB">
<feFlood flood-opacity="0" result="BackgroundImageFix"/>
<feColorMatrix in="SourceAlpha" type="matrix" values="0 0 0 0 0 0 0 0 0 0 0 0 0 0 0 0 0 0 127 0"/>
<feOffset dy="4"/>
<feGaussianBlur stdDeviation="2"/>
<feColorMatrix type="matrix" values="0 0 0 0 0 0 0 0 0 0 0 0 0 0 0 0 0 0 0.25 0"/>
<feBlend mode="normal" in2="BackgroundImageFix" result="effect1_dropShadow"/>
<feBlend mode="normal" in="SourceGraphic" in2="effect1_dropShadow" result="shape"/>
</filter>
<linearGradient id="paint0_linear" x1="20" y1="38.6156" x2="20" y2="0" gradientUnits="userSpaceOnUse">
<stop stop-color="#0062E0"/>
<stop offset="1" stop-color="#19AFFF"/>
</linearGradient>
</defs>
</svg>

